<svg xmlns="http://www.w3.org/2000/svg" viewBox="0 0 716.63 198.68">
    <defs>
        <style>
            .cls-1 {
                fill: white;
            }
        </style>
    </defs>
    <g id="Ebene_2" data-name="Ebene 2">
        <path class="cls-1"
            d="M102,97.57c10.75,0,46.83-2.61,46.83-43.33,0-26.15-20.38-54.11-62.9-54.11H0V5.54H7.09c7.08,0,14.17,5.41,14.17,15.33V198.55H93c49.61,0,70.87-25,70.87-57.72C163.88,112,142.69,98.16,102,97.57Zm-1.89,93.77H71.75c-7.08,0-14.17-7.22-14.17-14.43V25.38C57.58,18.17,64.67,11,71.75,11H88.58c11.52,0,39.61.9,39.74,43.29.12,37.89-28.22,39.69-45,39.69-2.92,0-11.52,0-11.52,1.8v3.61c0,1.81,8.6,1.81,11.52,1.81,16.83,0,59.35,3.6,59.35,39.68C142.62,180.52,109.84,191.34,100.1,191.34Zm-.66-93.8h0Z" />
        <polygon class="cls-1" points="260.1 0.13 245.92 0.13 239.17 19.03 309.7 198.55 338.05 198.55 260.1 0.13" />
        <path class="cls-1"
            d="M160.33,198.55H217v-7.21c-14.18,0-21.26,0-21.26-14.43S259.55.13,259.55.13H245.37L181.59,176.91s-7.08,14.43-21.26,14.43Z" />
        <polygon class="cls-1"
            points="452.66 198.55 466.83 198.55 473.58 179.66 403.05 0.13 374.7 0.13 452.66 198.55" />
        <path class="cls-1"
            d="M553.3.13H496.61V7.34c14.17,0,21.26,0,21.26,14.44s-63.78,176.77-63.78,176.77h14.18L532,21.78S539.13,7.34,553.3,7.34Z" />
        <path class="cls-1"
            d="M624.51.13c-50.88,0-92.13,44.42-92.13,99.21s41.25,99.21,92.13,99.21,92.12-44.41,92.12-99.21S675.39.13,624.51.13Zm.15,187.79c-36.78,0-66.59-39.66-66.59-88.58s29.81-88.58,66.59-88.58,66.59,39.66,66.59,88.58S661.44,187.92,624.66,187.92Z" />
        <path class="cls-1"
            d="M369.39,198.55v-7.21c21.26,0,21.26,0,14.17-14.43L312.7,21.78C305.61,7.34,298.52,7.22,284.35,7.22V0l63.78.13-.05,7.24c-21.21,0-21.21,0-14.12,14.41l70.86,155.13c7.09,14.43,14.18,14.56,28.35,14.56v7.21Z" />
    </g>
</svg>