<svg xmlns="http://www.w3.org/2000/svg" viewBox="0 0 716.63 198.68"><defs><style>.cls-1{fill:#1d1d1b;}.cls-2{fill:#fff;}</style></defs><g id="Ebene_2" data-name="Ebene 2"><g id="Brand_Hilfslinien" data-name="Brand Hilfslinien"><g id="Brand_name_v1"><g id="I"><g id="B"><path id="B-Outline" class="cls-1" d="M148.82,54.24c0-26.15-20.38-54.11-62.9-54.11H0V5.54H7.09c7.08,0,14.17,5.41,14.17,15.33V198.55H93c49.61,0,70.87-25,70.87-57.72,0-29.49-22.15-43.29-64.67-43.29C102.75,97.54,148.82,100.24,148.82,54.24Z"/><path id="B-Inline" class="cls-2" d="M128.32,54.24C128.19,11.85,100.1,11,88.58,11H71.75c-7.08,0-14.17,7.22-14.17,14.43V176.91c0,7.21,7.09,14.43,14.17,14.43H100.1c9.74,0,42.52-10.82,42.52-50.51,0-36.08-42.52-39.68-59.35-39.68-2.92,0-11.52,0-11.52-1.81V95.73c0-1.8,8.6-1.8,11.52-1.8C100.1,93.93,128.44,92.13,128.32,54.24Z"/></g><polygon class="cls-1" points="260.1 0.13 245.92 0.13 239.17 19.03 309.7 198.55 338.05 198.55 260.1 0.13"/><path class="cls-1" d="M160.33,198.55H217v-7.21c-14.18,0-21.26,0-21.26-14.43S259.55.13,259.55.13H245.37L181.59,176.91s-7.08,14.43-21.26,14.43Z"/><polygon class="cls-1" points="452.66 198.55 466.83 198.55 473.58 179.66 403.05 0.13 374.7 0.13 452.66 198.55"/><path class="cls-1" d="M553.3.13H496.61V7.34c14.17,0,21.26,0,21.26,14.44s-63.78,176.77-63.78,176.77h14.18L532,21.78S539.13,7.34,553.3,7.34Z"/><ellipse class="cls-1" cx="624.51" cy="99.34" rx="92.13" ry="99.21"/><ellipse class="cls-2" cx="624.66" cy="99.34" rx="66.59" ry="88.58"/><path class="cls-1" d="M369.39,198.55v-7.21c21.26,0,21.26,0,14.17-14.43L312.7,21.78C305.61,7.34,298.52,7.22,284.35,7.22V0l63.78.13-.05,7.24c-21.21,0-21.21,0-14.12,14.41l70.86,155.13c7.09,14.43,14.18,14.56,28.35,14.56v7.21Z"/></g></g></g></g></svg>