<svg xmlns="http://www.w3.org/2000/svg" width="21.456" height="24.422" viewBox="0 0 21.456 24.422">
  <defs>
    <style>
      .cls-1 {
        fill: white
      }
    </style>
  </defs>
  <path id="Brand_Logos" data-name="Brand Logos" class="cls-1" d="M22.939,6.537a4.514,4.514,0,0,0-.3-.36,5.131,5.131,0,0,0,.244-.884,6.144,6.144,0,0,0-.407-3.256s-1.3-.407-4.291,1.6a14.508,14.508,0,0,0-3.9-.523,14.657,14.657,0,0,0-3.907.523c-2.988-2.035-4.291-1.6-4.291-1.6a6.121,6.121,0,0,0-.407,3.221,4.9,4.9,0,0,0,.256.919c-.1.116-.209.244-.3.36a5.977,5.977,0,0,0-1.3,3.837,8.938,8.938,0,0,0,.047.988c.372,5.151,3.8,6.349,7.07,6.721a2.974,2.974,0,0,0-.9,1.616,4.677,4.677,0,0,0-.151,1.267V22.49c-1.3.116-2.636-.074-3.049-1.234a6.622,6.622,0,0,0-2.133-2.8,1.371,1.371,0,0,1-.2-.131,1.164,1.164,0,0,0-1.082-.751H3.937a1.162,1.162,0,0,0-1.163,1.157c0,.945.941,1.555,1.329,1.762a5.194,5.194,0,0,1,1.073,1.58c.424,1.19,1.662,3,5.193,2.763,0,.041,0,.079,0,.115l.005.311a1.163,1.163,0,0,0,1.163,1.163h5.482a1.163,1.163,0,0,0,1.163-1.163s.009-3.674.009-4.29a4.68,4.68,0,0,0-.151-1.267l0-.007,0,.007c-.01-.041-.025-.074-.036-.113a2.944,2.944,0,0,0-.861-1.5l.013.024c-.008-.007-.015-.017-.023-.024,3.268-.372,6.675-1.593,7.047-6.721a8.938,8.938,0,0,0,.047-.988,6.082,6.082,0,0,0-1.291-3.837Z" transform="translate(-2.774 -1.999)"/>
</svg>
