<svg xmlns="http://www.w3.org/2000/svg" width="21.867" height="21.867" viewBox="0 0 21.867 21.867">
  <defs>
    <style>
      .cls-1 {
        fill: white;
        fill-rule: evenodd;
      }
    </style>
  </defs>
  <path id="InstaPath" class="cls-1" d="M22.134,11.2c-2.969,0-3.342.013-4.508.066a8.022,8.022,0,0,0-2.654.508,5.593,5.593,0,0,0-3.2,3.2,7.986,7.986,0,0,0-.508,2.654c-.052,1.166-.066,1.539-.066,4.508s.013,3.341.066,4.507a8.035,8.035,0,0,0,.508,2.654,5.595,5.595,0,0,0,3.2,3.2A8.031,8.031,0,0,0,17.625,33c1.166.053,1.539.066,4.508.066s3.341-.013,4.507-.066a8.037,8.037,0,0,0,2.655-.508,5.6,5.6,0,0,0,3.2-3.2A8.1,8.1,0,0,0,33,26.641c.052-1.166.066-1.538.066-4.507s-.014-3.342-.066-4.508a8.1,8.1,0,0,0-.508-2.654,5.594,5.594,0,0,0-3.2-3.2,8.048,8.048,0,0,0-2.656-.508c-1.166-.053-1.537-.066-4.508-.066Zm-.365,1.97h.365c2.919,0,3.265.011,4.418.063a6.054,6.054,0,0,1,2.03.377,3.623,3.623,0,0,1,2.075,2.075,6.041,6.041,0,0,1,.377,2.03c.052,1.153.064,1.5.064,4.417s-.011,3.264-.064,4.417a6.048,6.048,0,0,1-.377,2.029,3.626,3.626,0,0,1-2.075,2.074,6.031,6.031,0,0,1-2.03.377c-1.153.052-1.5.064-4.418.064s-3.265-.011-4.418-.064a6.065,6.065,0,0,1-2.03-.377,3.622,3.622,0,0,1-2.076-2.074,6.041,6.041,0,0,1-.377-2.03c-.052-1.153-.063-1.5-.063-4.418s.01-3.264.063-4.417a6.051,6.051,0,0,1,.377-2.03,3.623,3.623,0,0,1,2.076-2.076,6.041,6.041,0,0,1,2.03-.377c1.009-.046,1.4-.059,3.437-.062v0ZM26.659,16.3a1.312,1.312,0,0,1,1.312-1.312h0A1.312,1.312,0,1,1,26.659,16.3Zm-4.524.221a5.614,5.614,0,1,0,5.614,5.615A5.615,5.615,0,0,0,22.134,16.519Zm3.645,5.615a3.644,3.644,0,1,0-3.644,3.644A3.644,3.644,0,0,0,25.779,22.133Z" transform="translate(-11.2 -11.2)"/>
</svg>
