<svg xmlns="http://www.w3.org/2000/svg" viewBox="0 0 619.89 129.35">
    <title>lautschriftBaivo</title>
    <defs>
        <style>
            .svgColor {
                fill: white;
                fill-rule: evenodd;
            }
        </style>


    </defs>
    <g id="lautschriftBaivo" data-name="lautschriftBaivo">
        <polygon class="svgColor"
            points="12.6 0 0 0 0 129.35 12.6 129.35 14 129.35 43.82 129.35 43.82 116.06 14 116.06 14 13.3 43.82 13.3 43.82 0 14 0 12.6 0" />
        <path class="svgColor"
            d="M104.16,38.78Q87,38.78,86,53.62h-1.4V9.38H69.72v105q5,.62,9.94,1c3.26.26,6.58.39,9.94.39q21.77,0,33.7-11.38t11.93-32q0-16.11-8.12-24.85T104.16,38.78Zm9.06,56.35q-7.32,8-20.68,8.05c-2.64,0-5.31-.1-8-.27V72.66q0-21.28,18.9-21.28,8.19,0,12.63,5.46t4.44,15.54Q120.53,87.08,113.22,95.13Z" />
        <path class="svgColor"
            d="M184.93,38.78q-16,0-24.71,10.08t-8.75,28.28q0,18.69,10.33,28.66t29.29,10q4.2,0,9.66-.36a97,97,0,0,0,12-1.6l-1.82-13q-4.62.9-9.1,1.43a78.16,78.16,0,0,1-9.1.53q-13.23,0-20.4-6.72a22.35,22.35,0,0,1-6.45-12.18H216c.28-2.94.42-6.12.42-9.52q0-17.37-8.22-26.46T184.93,38.78ZM165.37,72.52c.5-6,2.17-10.74,5-14.28q5.21-6.45,14.66-6.44,8.4,0,13.16,5.35T203,72.52Z" />
        <polygon class="svgColor"
            points="260.95 40.18 237.71 40.18 237.71 53.48 260.95 53.48 260.95 101.08 237.71 101.08 237.71 114.38 260.95 114.38 274.95 114.38 298.19 114.38 298.19 101.08 274.95 101.08 274.95 53.48 298.19 53.48 298.19 40.18 274.95 40.18 260.95 40.18" />
        <polygon class="svgColor"
            points="352.93 101.78 351.67 101.78 331.37 40.18 315.55 40.18 342.43 114.38 362.17 114.38 388.34 40.18 372.52 40.18 352.93 101.78" />
        <path class="svgColor"
            d="M428.8,38.78a82.89,82.89,0,0,0-11.86.73,59.2,59.2,0,0,0-10.4,2.56L408.78,55a70.89,70.89,0,0,1,9.52-2.24,58.47,58.47,0,0,1,8.82-.63q12.74,0,19.67,6.65t6.93,19.39q0,11.61-5.88,18t-16.52,6.37A36.2,36.2,0,0,1,410.46,96l-7.28,11.2a33.87,33.87,0,0,0,11.34,6.12,49.58,49.58,0,0,0,16.24,2.49q18.14,0,27.89-10.12t9.77-28.24q0-18.69-10.32-28.67T428.8,38.78Z" />
        <path class="svgColor"
            d="M512.8,38.78a83,83,0,0,0-11.87.73,59.1,59.1,0,0,0-10.39,2.56L492.78,55a70.19,70.19,0,0,1,9.52-2.24,58.47,58.47,0,0,1,8.82-.63q12.74,0,19.67,6.65t6.93,19.39q0,11.61-5.88,18t-16.52,6.37A36.2,36.2,0,0,1,494.46,96l-7.28,11.2a33.68,33.68,0,0,0,11.34,6.12,49.53,49.53,0,0,0,16.24,2.49q18.12,0,27.89-10.12t9.77-28.24q0-18.69-10.33-28.67T512.8,38.78Z" />
        <polygon class="svgColor"
            points="606.45 0 605.05 0 576.08 0 576.08 13.3 605.05 13.3 605.05 116.06 576.08 116.06 576.08 129.35 605.05 129.35 606.45 129.35 619.89 129.35 619.89 0 606.45 0" />
    </g>


</svg>