<svg xmlns="http://www.w3.org/2000/svg" viewBox="0 0 598.63 124.92">
<title>LautschriftBaivo</title>
 <defs>
    <style>
      .cls-2a {
        fill: black;
              }
    </style>
  </defs>
<g id="Ebene_2" data-name="Ebene 2">
<g id="Ebene_1-2" data-name="Ebene 1">
<path class="cls-2a" d="M25.15,131.68V6.76H38.67V131.68ZM37.31,19.6V6.76H67.46V19.6Zm0,112.08V118.83H67.46v12.85Z" transform="translate(-25.15 -6.76)"/>
<path class="cls-2a" d="M92.47,117.21V15.82H106.8V116Zm19.2,1.35q-4.87,0-9.6-.37c-3.15-.25-6.35-.57-9.6-1L98,104.1a22.1,22.1,0,0,0,7.91,2c2.89.2,5.75.31,8.59.31q12.9,0,20-7.78t7.07-22q0-9.74-4.3-15t-12.2-5.27q-18.24,0-18.25,20.54l-4.19-18.38h5.54q1-14.34,17.58-14.33,14.33,0,22.17,8.45t7.84,24q0,19.95-11.52,30.93T111.67,118.56Z" transform="translate(-25.15 -6.76)"/>
<path class="cls-2a" d="M209.68,118.56q-18.31,0-28.29-9.63t-10-27.68q0-17.58,8.45-27.31t23.86-9.73q14.53,0,22.48,8.79t7.94,25.55q0,4.94-.4,9.19H183.46V76.79h37.71q0-9.67-4.59-14.84t-12.71-5.17q-9.12,0-14.16,6.22t-5,17.57q0,12.45,6.93,18.93T211.3,106a74.92,74.92,0,0,0,8.79-.51c2.89-.33,5.82-.8,8.79-1.38l1.76,12.57A95.64,95.64,0,0,1,219,118.23Q213.75,118.56,209.68,118.56Z" transform="translate(-25.15 -6.76)"/>
<path class="cls-2a" d="M254.7,58.4V45.56h58.4V58.4Zm0,58.81V104.37h58.4v12.84Zm22.44,0V45.56h13.52v71.65Z" transform="translate(-25.15 -6.76)"/>
<path class="cls-2a" d="M355.82,117.21,329.87,45.56h15.27L364.75,105H366l18.93-59.48h15.28l-25.28,71.65Z" transform="translate(-25.15 -6.76)"/>
<path class="cls-2a" d="M441.13,118.56a47.94,47.94,0,0,1-15.68-2.4,32.5,32.5,0,0,1-10.95-5.91l7-10.82a34.85,34.85,0,0,0,20.14,6.29q10.27,0,15.95-6.15T463.3,82.2q0-12.3-6.69-18.73t-19-6.42a56,56,0,0,0-8.52.61,69.12,69.12,0,0,0-9.19,2.16l-2.17-12.44a57.48,57.48,0,0,1,10-2.46,79.07,79.07,0,0,1,11.46-.71q18.31,0,28.29,9.63t10,27.68q0,17.51-9.43,27.28T441.13,118.56Z" transform="translate(-25.15 -6.76)"/>
<path class="cls-2a" d="M522.25,118.56a48,48,0,0,1-15.69-2.4,32.5,32.5,0,0,1-10.95-5.91l7-10.82a33.52,33.52,0,0,0,8.65,4.4,33.88,33.88,0,0,0,11.5,1.89q10.26,0,16-6.15t5.68-17.37q0-12.3-6.7-18.73t-19-6.42a56,56,0,0,0-8.52.61A69.12,69.12,0,0,0,501,59.82l-2.16-12.44a57.38,57.38,0,0,1,10-2.46,79.26,79.26,0,0,1,11.46-.71q18.31,0,28.29,9.63t10,27.68q0,17.51-9.43,27.28T522.25,118.56Z" transform="translate(-25.15 -6.76)"/>
<path class="cls-2a" d="M581.46,19.6V6.76H610.8V19.6Zm0,112.08V118.83H610.8v12.85Zm28,0V6.76h14.33V131.68Z" transform="translate(-25.15 -6.76)"/></g></g></svg>