<svg xmlns="http://www.w3.org/2000/svg" width="25.111" height="25.053" viewBox="0 0 25.111 25.053">
  <defs>
    <style>
      .cls-1 {
        fill: black;
      }
    </style>
  </defs>
  <path id="Pfad_59" data-name="Pfad 59" class="cls-1" d="M3008.307,185.053h-16.982A4.065,4.065,0,0,1,2987.26,181V164.058a4.065,4.065,0,0,1,4.064-4.058h16.982a4.064,4.064,0,0,1,4.064,4.058V181A4.064,4.064,0,0,1,3008.307,185.053Zm-12.562-4.342h.007V169.905h-3.364v10.807Zm-1.679-12.283a1.946,1.946,0,1,0-1.945-1.946A1.943,1.943,0,0,0,2994.066,168.429Zm14.26,12.283v-5.924c0-2.911-.635-5.151-4.032-5.151a3.526,3.526,0,0,0-3.176,1.744h-.045v-1.476h-3.221v10.807h3.357v-5.348c0-1.41.266-2.775,2.016-2.775,1.718,0,1.744,1.613,1.744,2.866v5.257Z" transform="translate(-2987.26 -160)"/>
</svg>
