<svg xmlns="http://www.w3.org/2000/svg" viewBox="0 0 654 265.33">
   <defs>
    <style>
      .black {
        fill: white;
      }
    </style>
    </defs>
  <g data-name="Ebene 2">
    <g data-name="Ebene 1">
      <path class="black" d="M640.47 63.1q-13.53-27.78-38-42.64t-57-14.84q-31.84 0-56.34 16.22t-38.59 45.23q-14 29-14 67.67 0 39.36 13.53 67.32t38 42.81q24.48 14.85 57 14.84 31.86 0 56.52-16.22t38.53-45.23q13.88-29 13.87-67.67.01-39.69-13.52-67.49zM610.67 195q-9.07 27.45-25.52 43t-38.7 15.54q-20.9 0-38.19-14.67t-27.4-41.78q-10.11-27.09-10.11-63.73 0-35.91 9.08-63.18t25.52-42.81q16.44-15.54 38.7-15.54 21.24 0 38.36 14.68t27.23 41.6Q619.75 95 619.75 132q0 35.53-9.08 63zM460.27 7.65a5.76 5.76 0 01.31-.89 4.09 4.09 0 012.86-2.1A28.19 28.19 0 01469.7 4V2.25q-2.55.07-6.69.17t-8.88.09q-4.26 0-8.46-.09l-7-.17V4a28.12 28.12 0 016.26.66 4.09 4.09 0 012.86 2.1c.21.44.68 1 .49 1.65C447.52 10.87 367.4 231 367.4 231L290.15 18.58h134.66V7.65H274.48l92.92 255.44L460.05 8.41zM297.93 258.57a5.76 5.76 0 01-.31-.89l-.22-.75L204.75 2.25l-90.07 247.6A110 110 0 0190 252.36q-16.64 0-21.88-5.61t-5.24-24.4v-91.5H93.3q34.35 0 49.36 15.19a48 48 0 015.08 6.12l6.68-18.36q-14-5.78-34.36-8.37v-.72q20.24-6.15 32.36-16.09t17.36-22.06A61.89 61.89 0 00175 61.79q0-24.94-19.16-40.86T98.72 5q-6.51 0-22.06.36t-32.54.36q-11.94 0-24.23-.36T0 4.66v7.23q12.29.36 18.62 2.71a13.55 13.55 0 018.5 8.68Q29.3 29.61 29.29 43v179.35q0 13-2.17 19.52a13 13 0 01-8.5 8.68q-6.33 2.18-18.62 2.89v7.23q7.59-.72 19.89-.9t25-.18q22.41 0 38.33.54t23.87.54a131.5 131.5 0 0029.05-3h126.02v-10.92H163a70.31 70.31 0 007.83-5.78q23-19.71 23-50.45a63.65 63.65 0 00-6.51-28.2q-5-10.38-15.86-18.68l-14 38.59q.24 3.32.24 6.85 0 30.38-16.09 46.83a46.29 46.29 0 01-13.61 9.44l76.74-211s80.12 220.15 80.89 222.62c.19.63-.28 1.2-.49 1.64a4.07 4.07 0 01-2.85 2.1 28.3 28.3 0 01-6.27.66v1.76q2.81-.09 7-.18t8.46-.09q4.74 0 8.88.09t6.69.18v-1.76a28.19 28.19 0 01-6.26-.66 4.09 4.09 0 01-2.86-2.14zM62.92 43q0-18.81 5.06-25t21.7-6.15q27.12 0 38.87 13.56t11.76 40.32A95.1 95.1 0 01136 94.88a41.2 41.2 0 01-15.91 21.69q-11.58 8.15-32.91 8.14H62.92zM337 260.81a4.53 4.53 0 01-.3-.88l-.22-.76L246.3 6.16c-.19-.63.27-1.2.48-1.64a4.07 4.07 0 012.82-2.11 26.87 26.87 0 016.17-.65V0q-2.76.09-6.89.18c-2.76.06-5.54.08-8.34.08-3.11 0-6 0-8.75-.08S226.88.06 225.2 0v1.76a27 27 0 016.17.65 4.07 4.07 0 012.82 2.11 5.65 5.65 0 01.3.88l.22.76 90.13 253c.2.63-.27 1.2-.47 1.64a4.07 4.07 0 01-2.82 2.11 27.41 27.41 0 01-6.17.66v1.75c1.84-.06 4.13-.12 6.89-.17s5.54-.09 8.33-.09q4.68 0 8.76.09t6.59.17v-1.75a27.41 27.41 0 01-6.17-.66 4.07 4.07 0 01-2.78-2.1z"/>
    </g>
  </g>
</svg>