<svg xmlns="http://www.w3.org/2000/svg" viewBox="0 0 217.91 442.1">
    <g id="borderSwiper">
        <path style="fill: white;"
            d="M151.06,4a62.93,62.93,0,0,1,62.85,62.85V333.14A105,105,0,1,1,4,333.14V66.85A62.93,62.93,0,0,1,66.85,4h84.21m0-4H66.85A66.85,66.85,0,0,0,0,66.85V333.14a109,109,0,0,0,109,109h0a109,109,0,0,0,109-109V66.85A66.85,66.85,0,0,0,151.06,0Z" />
    </g>
    <g id="arrowDown" style="fill: white;">
        <rect x="105.97" y="39.63" width="5.97" height="77.11" />
        <rect x="105.97" y="126.85" width="5.97" height="52.19" />
        <path
            d="M168.33,118.06a3.8,3.8,0,0,1,.21-.6,2.78,2.78,0,0,1,1.93-1.42,19.37,19.37,0,0,1,4.22-.44v-1.18l-4.51.12q-2.79.06-6,.06c-1.91,0-3.81,0-5.69-.06l-4.71-.12v1.18A19.34,19.34,0,0,1,158,116a2.78,2.78,0,0,1,1.93,1.42c.14.3.46.68.32,1.11-.51,1.66-54.46,149.91-54.46,149.91l-52-143.06h90.69v-7.36H43.22l62.58,172,62.39-171.51Z" />
    </g>
</svg>