<svg xmlns="http://www.w3.org/2000/svg" viewBox="0 0 231.91 470.5">
<defs>
    <style>
    .a{
        fill: white
        }
    </style>
</defs>
    <title>Swiper_1</title>
    <g id="DotsSwiper" class="a">
        <circle cx="84.06" cy="31.39" r="3.83" />
        <circle cx="96.82" cy="31.39" r="3.83" />
        <circle cx="109.57" cy="31.39" r="3.83" />
        <circle cx="122.33" cy="31.39" r="3.83" />
        <circle cx="135.09" cy="31.39" r="3.83" />
        <circle cx="147.85" cy="31.39" r="3.83" />
        <circle cx="71.3" cy="44.15" r="3.83" />
        <circle cx="84.06" cy="44.15" r="3.83" />
        <circle cx="96.82" cy="44.15" r="3.83" />
        <circle cx="109.57" cy="44.15" r="3.83" />
        <circle cx="122.33" cy="44.15" r="3.83" />
        <circle cx="135.09" cy="44.15" r="3.83" />
        <circle cx="147.85" cy="44.15" r="3.83" />
        <circle cx="160.61" cy="44.15" r="3.83" />
        <circle cx="58.54" cy="56.91" r="3.83" />
        <circle cx="71.3" cy="56.91" r="3.83" />
        <circle cx="84.06" cy="56.91" r="3.83" />
        <circle cx="96.82" cy="56.91" r="3.83" />
        <circle cx="109.57" cy="56.91" r="3.83" />
        <circle cx="122.33" cy="56.91" r="3.83" />
        <circle cx="135.09" cy="56.91" r="3.83" />
        <circle cx="147.85" cy="56.91" r="3.83" />
        <circle cx="160.61" cy="56.91" r="3.83" />
        <circle cx="173.37" cy="56.91" r="3.83" />
        <circle cx="45.78" cy="69.66" r="3.83" />
        <circle cx="58.54" cy="69.66" r="3.83" />
        <circle cx="71.3" cy="69.66" r="3.83" />
        <circle cx="84.06" cy="69.66" r="3.83" />
        <circle cx="96.82" cy="69.66" r="3.83" />
        <circle cx="109.57" cy="69.66" r="3.83" />
        <circle cx="122.33" cy="69.66" r="3.83" />
        <circle cx="135.09" cy="69.66" r="3.83" />
        <circle cx="147.85" cy="69.66" r="3.83" />
        <circle cx="160.61" cy="69.66" r="3.83" />
        <circle cx="173.37" cy="69.66" r="3.83" />
        <circle cx="186.13" cy="69.66" r="3.83" />
        <circle cx="45.78" cy="82.42" r="3.83" />
        <circle cx="58.54" cy="82.42" r="3.83" />
        <circle cx="71.3" cy="82.42" r="3.83" />
        <circle cx="84.06" cy="82.42" r="3.83" />
        <circle cx="96.82" cy="82.42" r="3.83" />
        <circle cx="109.57" cy="82.42" r="3.83" />
        <circle cx="122.33" cy="82.42" r="3.83" />
        <circle cx="135.09" cy="82.42" r="3.83" />
        <circle cx="147.85" cy="82.42" r="3.83" />
        <circle cx="160.61" cy="82.42" r="3.83" />
        <circle cx="173.37" cy="82.42" r="3.83" />
        <circle cx="186.13" cy="82.42" r="3.83" />
        <circle cx="45.78" cy="95.18" r="3.83" />
        <circle cx="58.54" cy="95.18" r="3.83" />
        <circle cx="71.3" cy="95.18" r="3.83" />
        <circle cx="84.06" cy="95.18" r="3.83" />
        <circle cx="96.82" cy="95.18" r="3.83" />
        <circle cx="135.09" cy="95.18" r="3.83" />
        <circle cx="147.85" cy="95.18" r="3.83" />
        <circle cx="160.61" cy="95.18" r="3.83" />
        <circle cx="173.37" cy="95.18" r="3.83" />
        <circle cx="186.13" cy="95.18" r="3.83" />
        <circle cx="45.78" cy="107.94" r="3.83" />
        <circle cx="58.54" cy="107.94" r="3.83" />
        <circle cx="71.3" cy="107.94" r="3.83" />
        <circle cx="84.06" cy="107.94" r="3.83" />
        <circle cx="96.82" cy="107.94" r="3.83" />
        <circle cx="135.09" cy="107.94" r="3.83" />
        <circle cx="147.85" cy="107.94" r="3.83" />
        <circle cx="160.61" cy="107.94" r="3.83" />
        <circle cx="173.37" cy="107.94" r="3.83" />
        <circle cx="186.13" cy="107.94" r="3.83" />
        <circle cx="45.78" cy="120.7" r="3.83" />
        <circle cx="58.54" cy="120.7" r="3.83" />
        <circle cx="71.3" cy="120.7" r="3.83" />
        <circle cx="84.06" cy="120.7" r="3.83" />
        <circle cx="96.82" cy="120.7" r="3.83" />
        <circle cx="109.57" cy="120.7" r="3.83" />
        <circle cx="122.33" cy="120.7" r="3.83" />
        <circle cx="135.09" cy="120.7" r="3.83" />
        <circle cx="147.85" cy="120.7" r="3.83" />
        <circle cx="160.61" cy="120.7" r="3.83" />
        <circle cx="173.37" cy="120.7" r="3.83" />
        <circle cx="186.13" cy="120.7" r="3.83" />
        <circle cx="45.78" cy="133.46" r="3.83" />
        <circle cx="58.54" cy="133.46" r="3.83" />
        <circle cx="71.3" cy="133.46" r="3.83" />
        <circle cx="84.06" cy="133.46" r="3.83" />
        <circle cx="96.82" cy="133.46" r="3.83" />
        <circle cx="109.57" cy="133.46" r="3.83" />
        <circle cx="122.33" cy="133.46" r="3.83" />
        <circle cx="135.09" cy="133.46" r="3.83" />
        <circle cx="147.85" cy="133.46" r="3.83" />
        <circle cx="160.61" cy="133.46" r="3.83" />
        <circle cx="173.37" cy="133.46" r="3.83" />
        <circle cx="186.13" cy="133.46" r="3.83" />
        <circle cx="45.78" cy="146.22" r="3.83" />
        <circle cx="58.54" cy="146.22" r="3.83" />
        <circle cx="71.3" cy="146.22" r="3.83" />
        <circle cx="84.06" cy="146.22" r="3.83" />
        <circle cx="96.82" cy="146.22" r="3.83" />
        <circle cx="109.57" cy="146.22" r="3.83" />
        <circle cx="122.33" cy="146.22" r="3.83" />
        <circle cx="135.09" cy="146.22" r="3.83" />
        <circle cx="147.85" cy="146.22" r="3.83" />
        <circle cx="160.61" cy="146.22" r="3.83" />
        <circle cx="173.37" cy="146.22" r="3.83" />
        <circle cx="186.13" cy="146.22" r="3.83" />
        <circle cx="45.78" cy="158.97" r="3.83" />
        <circle cx="58.54" cy="158.97" r="3.83" />
        <circle cx="71.3" cy="158.97" r="3.83" />
        <circle cx="84.06" cy="158.97" r="3.83" />
        <circle cx="96.82" cy="158.97" r="3.83" />
        <circle cx="109.57" cy="158.97" r="3.83" />
        <circle cx="122.33" cy="158.97" r="3.83" />
        <circle cx="135.09" cy="158.97" r="3.83" />
        <circle cx="147.85" cy="158.97" r="3.83" />
        <circle cx="160.61" cy="158.97" r="3.83" />
        <circle cx="173.37" cy="158.97" r="3.83" />
        <circle cx="186.13" cy="158.97" r="3.83" />
        <circle cx="45.78" cy="171.73" r="3.83" />
        <circle cx="58.54" cy="171.73" r="3.83" />
        <circle cx="71.3" cy="171.73" r="3.83" />
        <circle cx="84.06" cy="171.73" r="3.83" />
        <circle cx="96.82" cy="171.73" r="3.83" />
        <circle cx="109.57" cy="171.73" r="3.83" />
        <circle cx="122.33" cy="171.73" r="3.83" />
        <circle cx="135.09" cy="171.73" r="3.83" />
        <circle cx="147.85" cy="171.73" r="3.83" />
        <circle cx="160.61" cy="171.73" r="3.83" />
        <circle cx="173.37" cy="171.73" r="3.83" />
        <circle cx="186.13" cy="171.73" r="3.83" />
        <circle cx="58.54" cy="184.49" r="3.83" />
        <circle cx="71.3" cy="184.49" r="3.83" />
        <circle cx="84.06" cy="184.49" r="3.83" />
        <circle cx="96.82" cy="184.49" r="3.83" />
        <circle cx="109.57" cy="184.49" r="3.83" />
        <circle cx="122.33" cy="184.49" r="3.83" />
        <circle cx="135.09" cy="184.49" r="3.83" />
        <circle cx="147.85" cy="184.49" r="3.83" />
        <circle cx="160.61" cy="184.49" r="3.83" />
        <circle cx="173.37" cy="184.49" r="3.83" />
        <circle cx="45.78" cy="197.25" r="3.83" />
        <circle cx="71.3" cy="197.25" r="3.83" />
        <circle cx="84.06" cy="197.25" r="3.83" />
        <circle cx="96.82" cy="197.25" r="3.83" />
        <circle cx="109.57" cy="197.25" r="3.83" />
        <circle cx="122.33" cy="197.25" r="3.83" />
        <circle cx="135.09" cy="197.25" r="3.83" />
        <circle cx="147.85" cy="197.25" r="3.83" />
        <circle cx="160.61" cy="197.25" r="3.83" />
        <circle cx="186.13" cy="197.25" r="3.83" />
        <circle cx="45.78" cy="210.01" r="3.83" />
        <circle cx="58.54" cy="210.01" r="3.83" />
        <circle cx="84.06" cy="210.01" r="3.83" />
        <circle cx="96.82" cy="210.01" r="3.83" />
        <circle cx="109.57" cy="210.01" r="3.83" />
        <circle cx="122.33" cy="210.01" r="3.83" />
        <circle cx="135.09" cy="210.01" r="3.83" />
        <circle cx="147.85" cy="210.01" r="3.83" />
        <circle cx="173.37" cy="210.01" r="3.83" />
        <circle cx="186.13" cy="210.01" r="3.83" />
        <circle cx="45.78" cy="222.77" r="3.83" />
        <circle cx="58.54" cy="222.77" r="3.83" />
        <circle cx="71.3" cy="222.77" r="3.83" />
        <circle cx="96.82" cy="222.77" r="3.83" />
        <circle cx="109.57" cy="222.77" r="3.83" />
        <circle cx="122.33" cy="222.77" r="3.83" />
        <circle cx="135.09" cy="222.77" r="3.83" />
        <circle cx="160.61" cy="222.77" r="3.83" />
        <circle cx="173.37" cy="222.77" r="3.83" />
        <circle cx="186.13" cy="222.77" r="3.83" />
        <circle cx="58.54" cy="235.53" r="3.83" />
        <circle cx="71.3" cy="235.53" r="3.83" />
        <circle cx="84.06" cy="235.53" r="3.83" />
        <circle cx="109.57" cy="235.53" r="3.83" />
        <circle cx="122.33" cy="235.53" r="3.83" />
        <circle cx="147.85" cy="235.53" r="3.83" />
        <circle cx="160.61" cy="235.53" r="3.83" />
        <circle cx="173.37" cy="235.53" r="3.83" />
        <circle cx="45.78" cy="248.28" r="3.83" />
        <circle cx="71.3" cy="248.28" r="3.83" />
        <circle cx="84.06" cy="248.28" r="3.83" />
        <circle cx="96.82" cy="248.28" r="3.83" />
        <circle cx="135.09" cy="248.28" r="3.83" />
        <circle cx="147.85" cy="248.28" r="3.83" />
        <circle cx="160.61" cy="248.28" r="3.83" />
        <circle cx="186.13" cy="248.28" r="3.83" />
        <circle cx="45.78" cy="261.04" r="3.83" />
        <circle cx="58.54" cy="261.04" r="3.83" />
        <circle cx="84.06" cy="261.04" r="3.83" />
        <circle cx="96.82" cy="261.04" r="3.83" />
        <circle cx="109.57" cy="261.04" r="3.83" />
        <circle cx="122.33" cy="261.04" r="3.83" />
        <circle cx="135.09" cy="261.04" r="3.83" />
        <circle cx="147.85" cy="261.04" r="3.83" />
        <circle cx="173.37" cy="261.04" r="3.83" />
        <circle cx="186.13" cy="261.04" r="3.83" />
        <circle cx="45.78" cy="273.8" r="3.83" />
        <circle cx="58.54" cy="273.8" r="3.83" />
        <circle cx="71.3" cy="273.8" r="3.83" />
        <circle cx="96.82" cy="273.8" r="3.83" />
        <circle cx="109.57" cy="273.8" r="3.83" />
        <circle cx="122.33" cy="273.8" r="3.83" />
        <circle cx="135.09" cy="273.8" r="3.83" />
        <circle cx="160.61" cy="273.8" r="3.83" />
        <circle cx="173.37" cy="273.8" r="3.83" />
        <circle cx="186.13" cy="273.8" r="3.83" />
        <circle cx="45.78" cy="286.56" r="3.83" />
        <circle cx="58.54" cy="286.56" r="3.83" />
        <circle cx="71.3" cy="286.56" r="3.83" />
        <circle cx="84.06" cy="286.56" r="3.83" />
        <circle cx="109.57" cy="286.56" r="3.83" />
        <circle cx="122.33" cy="286.56" r="3.83" />
        <circle cx="147.85" cy="286.56" r="3.83" />
        <circle cx="160.61" cy="286.56" r="3.83" />
        <circle cx="173.37" cy="286.56" r="3.83" />
        <circle cx="186.13" cy="286.56" r="3.83" />
        <circle cx="45.78" cy="299.32" r="3.83" />
        <circle cx="58.54" cy="299.32" r="3.83" />
        <circle cx="71.3" cy="299.32" r="3.83" />
        <circle cx="84.06" cy="299.32" r="3.83" />
        <circle cx="96.82" cy="299.32" r="3.83" />
        <circle cx="135.09" cy="299.32" r="3.83" />
        <circle cx="147.85" cy="299.32" r="3.83" />
        <circle cx="160.61" cy="299.32" r="3.83" />
        <circle cx="173.37" cy="299.32" r="3.83" />
        <circle cx="186.13" cy="299.32" r="3.83" />
        <circle cx="45.78" cy="312.08" r="3.83" />
        <circle cx="58.54" cy="312.08" r="3.83" />
        <circle cx="71.3" cy="312.08" r="3.83" />
        <circle cx="84.06" cy="312.08" r="3.83" />
        <circle cx="96.82" cy="312.08" r="3.83" />
        <circle cx="109.57" cy="312.08" r="3.83" />
        <circle cx="122.33" cy="312.08" r="3.83" />
        <circle cx="135.09" cy="312.08" r="3.83" />
        <circle cx="147.85" cy="312.08" r="3.83" />
        <circle cx="160.61" cy="312.08" r="3.83" />
        <circle cx="173.37" cy="312.08" r="3.83" />
        <circle cx="186.13" cy="312.08" r="3.83" />
        <circle cx="58.54" cy="324.84" r="3.83" />
        <circle cx="71.3" cy="324.84" r="3.83" />
        <circle cx="84.06" cy="324.84" r="3.83" />
        <circle cx="96.82" cy="324.84" r="3.83" />
        <circle cx="109.57" cy="324.84" r="3.83" />
        <circle cx="122.33" cy="324.84" r="3.83" />
        <circle cx="135.09" cy="324.84" r="3.83" />
        <circle cx="147.85" cy="324.84" r="3.83" />
        <circle cx="160.61" cy="324.84" r="3.83" />
        <circle cx="173.37" cy="324.84" r="3.83" />
        <circle cx="71.3" cy="337.59" r="3.83" />
        <circle cx="84.06" cy="337.59" r="3.83" />
        <circle cx="96.82" cy="337.59" r="3.83" />
        <circle cx="109.57" cy="337.59" r="3.83" />
        <circle cx="122.33" cy="337.59" r="3.83" />
        <circle cx="135.09" cy="337.59" r="3.83" />
        <circle cx="147.85" cy="337.59" r="3.83" />
        <circle cx="160.61" cy="337.59" r="3.83" />
        <circle cx="84.06" cy="350.35" r="3.83" />
        <circle cx="96.82" cy="350.35" r="3.83" />
        <circle cx="109.57" cy="350.35" r="3.83" />
        <circle cx="122.33" cy="350.35" r="3.83" />
        <circle cx="135.09" cy="350.35" r="3.83" />
        <circle cx="147.85" cy="350.35" r="3.83" />
        <circle cx="96.82" cy="363.11" r="3.83" />
        <circle cx="109.57" cy="363.11" r="3.83" />
        <circle cx="122.33" cy="363.11" r="3.83" />
        <circle cx="135.09" cy="363.11" r="3.83" />
    </g>
    <g id="borderSwiper"  class="a">
        <path
            d="M160.76,4a67.22,67.22,0,0,1,67.15,67.15v283.4A112,112,0,0,1,36.79,433.71,111.25,111.25,0,0,1,4,354.55V71.15A67.22,67.22,0,0,1,71.15,4h89.61m0-4H71.15A71.14,71.14,0,0,0,0,71.15v283.4a116,116,0,0,0,116,116h0a116,116,0,0,0,116-115.95V71.15A71.15,71.15,0,0,0,160.76,0Z" />
    </g>
</svg>